<svg xmlns="http://www.w3.org/2000/svg" viewBox="0 0 243.06 287.86"><defs><style>.cls-1{fill:#fff;}</style></defs><g id="Layer_2" data-name="Layer 2"><g id="Layer_1-2" data-name="Layer 1"><path class="cls-1" d="M198,60.46a19.27,19.27,0,0,1-19.21-19.22V0H31.58A31.58,31.58,0,0,0,0,31.58v224.7a31.58,31.58,0,0,0,31.58,31.58H211.49a31.58,31.58,0,0,0,31.57-31.58V60.46ZM174,191.88a7.67,7.67,0,0,1-7.64,7.65H61.13a7.68,7.68,0,0,1-7.65-7.65h0a7.68,7.68,0,0,1,7.65-7.65H166.39a7.67,7.67,0,0,1,7.64,7.65ZM53.48,162.09a7.68,7.68,0,0,1,7.65-7.65h86.16a7.65,7.65,0,0,1,0,15.3H61.13A7.68,7.68,0,0,1,53.48,162.09Zm136.1-29.79a7.67,7.67,0,0,1-7.65,7.65H61.13a7.68,7.68,0,0,1-7.65-7.65h0a7.68,7.68,0,0,1,7.65-7.65h120.8a7.67,7.67,0,0,1,7.65,7.65Z"/><path class="cls-1" d="M195.88,50.05h45.71L192.15.6V46.32A3.73,3.73,0,0,0,195.88,50.05Z"/></g></g></svg>